<?xml version="1.0" standalone="no"?>
<!DOCTYPE svg PUBLIC "-//W3C//DTD SVG 20010904//EN"
 "http://www.w3.org/TR/2001/REC-SVG-20010904/DTD/svg10.dtd">
<svg version="1.0" xmlns="http://www.w3.org/2000/svg"
 width="512.000000pt" height="512.000000pt" viewBox="0 0 512.000000 512.000000"
 preserveAspectRatio="xMidYMid meet">
<metadata>
Created by potrace 1.16, written by Peter Selinger 2001-2019
</metadata>
<g transform="translate(0.000000,512.000000) scale(0.100000,-0.100000)"
fill="#000000" stroke="none">
<path d="M1416 3696 c-26 -8 -51 -18 -55 -23 -3 -6 -22 -15 -42 -22 -50 -16
-72 -43 -119 -145 -23 -49 -61 -112 -86 -140 -97 -111 -154 -269 -154 -427 0
-64 -8 -121 -30 -211 -68 -276 -95 -505 -87 -741 7 -238 43 -344 151 -453 46
-45 75 -65 115 -79 147 -48 308 35 413 214 20 34 80 163 134 287 54 123 101
224 106 224 4 0 24 -11 44 -25 83 -56 211 -71 308 -35 74 28 128 69 183 140
l46 60 146 0 146 0 63 -70 c86 -95 166 -135 272 -135 79 0 128 15 199 59 l39
25 32 -67 c18 -37 61 -134 96 -216 101 -234 140 -303 214 -377 104 -105 213
-134 337 -87 78 29 161 112 207 208 55 113 70 222 63 458 -5 207 -27 367 -83
605 -14 62 -30 164 -34 227 -13 180 -58 295 -167 422 -39 45 -68 91 -87 140
-34 86 -54 111 -118 143 -77 39 -146 55 -235 55 -76 0 -84 -2 -98 -24 -9 -14
-30 -27 -50 -30 -44 -9 -88 -59 -110 -128 -10 -29 -24 -63 -31 -75 l-14 -23
-626 0 c-393 0 -632 4 -644 10 -11 6 -29 42 -45 90 -29 87 -54 115 -111 126
-19 3 -40 16 -49 30 -14 22 -21 24 -103 23 -48 0 -109 -6 -136 -13z m221 -87
c77 -14 105 -36 126 -101 l16 -48 -41 21 c-112 57 -261 69 -378 29 -36 -12
-76 -28 -88 -37 -13 -8 -25 -13 -27 -11 -2 2 10 27 27 57 35 60 64 77 156 90
84 12 138 12 209 0z m1993 -15 c50 -17 58 -24 84 -73 25 -47 26 -53 10 -46
-128 54 -148 59 -264 59 -108 1 -119 -1 -177 -30 -35 -17 -63 -28 -63 -25 0 3
13 31 28 61 24 49 32 56 72 67 64 18 241 10 310 -13z m-2060 -124 c40 -6 98
-27 150 -52 66 -33 100 -43 155 -47 l70 -6 5 -265 5 -265 80 -6 c91 -6 144
-28 200 -84 124 -125 120 -319 -11 -464 -92 -102 -217 -136 -338 -90 -95 35
-182 142 -202 247 -3 17 -9 32 -13 32 -3 0 -31 -9 -61 -21 -128 -49 -313 1
-424 115 -65 67 -98 121 -132 222 -23 71 -26 90 -22 189 5 132 26 198 95 299
73 107 177 175 298 195 70 12 73 12 145 1z m2001 -4 c174 -37 301 -154 372
-342 18 -48 22 -80 22 -175 l0 -116 -42 -84 c-82 -163 -168 -243 -307 -283
-76 -22 -198 -20 -266 4 -30 11 -59 21 -63 23 -5 1 -15 -23 -23 -53 -27 -100
-94 -188 -179 -233 -31 -17 -57 -22 -115 -21 -88 0 -136 21 -211 91 -82 77
-116 180 -98 297 25 153 134 253 285 262 37 2 71 7 76 12 4 4 9 122 10 262 l3
255 68 7 c50 5 80 14 115 36 109 68 218 86 353 58z m-577 -118 c10 -40 -6
-472 -18 -480 -6 -4 -29 -8 -51 -8 -58 0 -152 -48 -203 -104 -71 -77 -96 -143
-100 -263 l-4 -103 -128 0 -128 0 -4 98 c-3 86 -8 107 -36 164 -59 120 -157
193 -277 205 l-55 6 0 253 0 254 499 0 499 0 6 -22z m-1960 -636 c35 -69 126
-181 184 -224 27 -21 75 -50 108 -65 52 -24 73 -28 182 -31 l123 -4 14 -35 c8
-19 24 -47 35 -63 11 -15 20 -34 20 -41 0 -15 -159 -387 -201 -472 -33 -65
-67 -91 -145 -108 -75 -17 -146 6 -217 71 -90 83 -141 192 -156 339 l-8 76 -2
-85 c-1 -136 34 -240 113 -327 88 -97 207 -135 309 -99 l38 14 -34 -42 c-19
-22 -56 -54 -82 -71 -42 -26 -58 -30 -119 -30 -62 0 -76 4 -115 30 -166 112
-217 421 -146 882 15 98 66 333 72 333 1 0 14 -22 27 -48z m3000 -107 c43
-221 59 -368 58 -540 -1 -258 -36 -381 -136 -480 -105 -104 -210 -114 -328
-29 -37 26 -127 134 -102 122 89 -43 118 -52 165 -56 169 -13 333 190 328 407
0 28 -5 19 -19 -41 -38 -152 -115 -265 -216 -314 -67 -33 -129 -29 -205 12
-76 42 -92 64 -159 217 -35 78 -87 191 -117 252 -54 106 -55 110 -39 135 10
14 28 49 42 79 24 51 26 53 57 47 201 -41 364 9 510 156 62 62 79 75 84 61 4
-9 28 -98 54 -197 26 -100 48 -170 48 -156 1 36 -26 187 -55 313 -24 100 -26
174 -5 151 5 -5 20 -67 35 -139z"/>
<path d="M1356 3404 c-59 -19 -57 -25 4 -14 223 44 414 -74 512 -314 22 -56
27 -63 23 -33 -9 55 -40 122 -90 193 -84 117 -188 176 -320 181 -52 2 -97 -3
-129 -13z"/>
<path d="M1365 3218 c-2 -7 -5 -43 -8 -80 l-5 -66 57 -56 c31 -31 62 -56 68
-56 6 0 34 21 62 46 l51 46 0 70 c0 106 -2 108 -121 108 -71 0 -101 -4 -104
-12z m148 -25 c-24 -2 -62 -2 -85 0 -24 2 -5 4 42 4 47 0 66 -2 43 -4z"/>
<path d="M1160 2945 l0 -95 65 0 c41 0 74 -6 88 -15 22 -14 26 -12 82 46 l60
61 -45 39 c-25 21 -51 37 -58 34 -8 -3 -45 -5 -82 -5 l-69 0 -4 -67 -3 -68 -2
73 -2 72 81 0 c51 0 78 4 74 10 -3 6 -46 10 -96 10 l-89 0 0 -95z"/>
<path d="M1560 2991 c-36 -32 -52 -53 -45 -59 6 -5 31 -28 57 -50 26 -22 44
-43 40 -48 -4 -4 2 -3 13 1 11 5 44 11 73 13 l53 4 -3 91 -3 92 -65 3 -65 2
-55 -49z"/>
<path d="M1420 2864 l-60 -57 0 -74 0 -73 109 0 c125 0 119 -5 122 98 2 61 1
64 -37 103 -65 67 -67 67 -134 3z m-23 -166 c-3 -7 -5 -2 -5 12 0 14 2 19 5
13 2 -7 2 -19 0 -25z m126 -5 c-7 -2 -21 -2 -30 0 -10 3 -4 5 12 5 17 0 24 -2
18 -5z"/>
<path d="M1899 2671 c-101 -63 -115 -197 -30 -282 55 -56 130 -72 199 -44 92
39 132 120 107 217 -32 123 -169 178 -276 109z m114 -18 c-7 -2 -21 -2 -30 0
-10 3 -4 5 12 5 17 0 24 -2 18 -5z m-68 -15 c-11 -6 -27 -16 -35 -22 -9 -6 -5
-1 8 12 13 12 28 22 35 22 7 0 3 -6 -8 -12z"/>
<path d="M1729 2653 c-13 -16 -12 -17 4 -4 16 13 21 21 13 21 -2 0 -10 -8 -17
-17z"/>
<path d="M1681 2600 c-47 -40 -119 -63 -186 -58 -34 2 -54 -1 -52 -7 2 -5 33
-10 68 -9 70 0 145 32 190 80 30 32 21 29 -20 -6z"/>
<path d="M3430 3420 c-117 -20 -240 -120 -301 -245 -33 -68 -34 -73 -34 -195
0 -94 5 -140 19 -187 11 -35 23 -63 28 -63 11 0 11 0 -12 82 -56 203 4 404
153 514 131 97 290 100 442 9 53 -33 57 -34 35 -10 -33 35 -133 83 -199 95
-59 11 -66 11 -131 0z"/>
<path d="M3481 3304 c-17 -14 -36 -42 -42 -63 -22 -75 42 -154 124 -149 20 1
37 6 37 11 0 4 4 6 9 3 12 -8 59 49 68 82 8 34 -31 108 -68 128 -44 22 -93 18
-128 -12z m120 -114 c5 0 9 -3 9 -7 0 -5 -25 -6 -55 -5 -63 4 -71 19 -33 67
l21 27 25 -41 c13 -22 28 -41 33 -41z"/>
<path d="M3526 3231 c-24 -26 -18 -38 16 -31 24 5 26 7 14 28 -12 23 -12 23
-30 3z"/>
<path d="M3235 3110 c-33 -13 -65 -55 -71 -92 -12 -70 53 -148 123 -148 30 0
78 41 102 87 43 85 -63 191 -154 153z m59 -56 c19 -19 29 -53 24 -85 -3 -21
-8 -24 -48 -24 l-45 0 -3 42 c-2 32 2 47 17 62 25 25 35 26 55 5z"/>
<path d="M3245 3037 c-8 -12 -15 -36 -15 -55 0 -32 1 -33 40 -30 34 2 40 5 40
24 0 30 -19 72 -36 78 -7 3 -20 -5 -29 -17z"/>
<path d="M3734 3091 c-30 -18 -64 -74 -64 -106 0 -29 30 -76 63 -95 41 -25 83
-25 125 0 81 50 71 159 -20 206 -37 19 -67 18 -104 -5z m38 -86 c-3 -45 -1
-56 13 -62 30 -11 50 11 48 52 -2 21 -6 43 -10 49 -5 7 0 3 10 -7 48 -53 -17
-142 -67 -91 -9 8 -16 26 -16 39 0 22 16 75 22 75 2 0 1 -25 0 -55z"/>
<path d="M3523 2863 c-12 -2 -36 -20 -54 -40 -28 -33 -31 -41 -26 -87 4 -41
10 -55 37 -79 32 -28 36 -29 99 -23 36 3 71 12 79 20 8 8 17 36 19 63 8 91
-69 163 -154 146z m59 -112 c19 -29 23 -42 15 -50 -14 -14 -84 -15 -92 -1 -6
9 35 90 45 90 3 -1 17 -18 32 -39z"/>
<path d="M3527 2735 l-18 -25 42 0 c40 0 41 1 27 22 -20 31 -30 31 -51 3z"/>
<path d="M2941 2698 c-68 -19 -120 -80 -134 -155 -16 -84 48 -180 135 -204
137 -37 270 121 214 254 -20 48 -72 94 -121 106 -50 13 -48 13 -94 -1z m52
-45 c-7 -2 -21 -2 -30 0 -10 3 -4 5 12 5 17 0 24 -2 18 -5z m-95 -43 c-22 -30
-35 -41 -22 -17 9 16 36 47 41 47 2 0 -6 -13 -19 -30z"/>
<path d="M3220 2697 c0 -4 15 -30 33 -57 45 -70 111 -102 222 -108 54 -3 85
-1 89 7 5 8 -15 11 -68 11 -98 0 -176 28 -214 77 -52 68 -61 78 -62 70z"/>
<path d="M2372 3173 c82 -2 214 -2 296 0 81 1 14 3 -148 3 -162 0 -229 -2
-148 -3z"/>
<path d="M2064 2987 c-3 -8 -4 -34 -2 -58 l3 -44 75 -3 c116 -5 122 -2 118 61
l-3 52 -93 3 c-73 2 -94 0 -98 -11z m134 -14 c-21 -2 -55 -2 -75 0 -21 2 -4 4
37 4 41 0 58 -2 38 -4z"/>
<path d="M2709 2974 c-10 -27 -5 -59 13 -81 14 -17 159 -18 176 -1 7 7 12 28
12 48 0 53 -13 60 -107 60 -81 0 -84 -1 -94 -26z m139 -1 c-21 -2 -55 -2 -75
0 -21 2 -4 4 37 4 41 0 58 -2 38 -4z"/>
<path d="M2322 2868 c-19 -19 -15 -66 7 -78 11 -5 83 -10 161 -10 139 0 141 0
152 25 9 19 8 29 -6 50 -16 25 -17 25 -159 25 -98 0 -147 -4 -155 -12z m278
-18 c0 -13 13 -11 -133 -18 -117 -6 -127 -6 -127 11 0 15 13 17 130 17 80 0
130 -4 130 -10z"/>
<path d="M2456 2579 c-48 -38 -24 -109 37 -109 26 0 67 40 67 67 0 8 -11 25
-25 38 -29 30 -45 31 -79 4z m54 -25 c11 -12 10 -18 -3 -31 -8 -9 -23 -13 -31
-10 -19 8 -21 43 -3 50 20 9 24 8 37 -9z"/>
<path d="M1003 2560 c-17 -52 -33 -115 -37 -140 -4 -31 7 -8 35 74 22 65 38
128 37 140 -3 13 -16 -17 -35 -74z"/>
<path d="M3421 2225 c0 -5 6 -21 14 -35 8 -14 14 -20 14 -15 0 6 -6 21 -14 35
-8 14 -14 21 -14 15z"/>
<path d="M3464 2128 c16 -38 67 -151 84 -188 11 -24 11 -24 6 5 -7 34 -90 215
-98 215 -4 0 0 -15 8 -32z"/>
</g>
</svg>